<?xml version="1.0" encoding="UTF-8" standalone="no"?>
<!-- Created with Inkscape (http://www.inkscape.org/) -->

<svg
   xmlns:dc="http://purl.org/dc/elements/1.1/"
   xmlns:cc="http://creativecommons.org/ns#"
   xmlns:rdf="http://www.w3.org/1999/02/22-rdf-syntax-ns#"
   xmlns:svg="http://www.w3.org/2000/svg"
   xmlns="http://www.w3.org/2000/svg"
   version="1.1"
   width="1261.705"
   height="884.27087"
   id="svg3004"
   xml:space="preserve"><metadata
     id="metadata3010"><rdf:RDF><cc:Work
         rdf:about=""><dc:format>image/svg+xml</dc:format><dc:type
           rdf:resource="http://purl.org/dc/dcmitype/StillImage" /><dc:title></dc:title></cc:Work></rdf:RDF></metadata><defs
     id="defs3008"><clipPath
       id="clipPath3020"><path
         d="m 0.03125,707.3551 1008.99975,0 0,-707.000913 -1008.99975,0 0,707.000913 z"
         id="path3022" /></clipPath><clipPath
       id="clipPath3026"><path
         d="m 0.03125,0.354187 1008.96895,0 0,706.645803 -1008.96895,0 0,-706.645803 z"
         id="path3028" /></clipPath><clipPath
       id="clipPath3038"><path
         d="m 0.03125,0.354187 1008.96895,0 0,706.645803 -1008.96895,0 0,-706.645803 z"
         id="path3040" /></clipPath><clipPath
       id="clipPath3214"><path
         d="m 0.03125,707.3551 1008.99975,0 0,-707.000913 -1008.99975,0 0,707.000913 z"
         id="path3216" /></clipPath><clipPath
       id="clipPath3220"><path
         d="m 0.03125,0.354187 1008.96895,0 0,706.645803 -1008.96895,0 0,-706.645803 z"
         id="path3222" /></clipPath><clipPath
       id="clipPath3232"><path
         d="m 0.03125,0.354187 1008.96895,0 0,706.645803 -1008.96895,0 0,-706.645803 z"
         id="path3234" /></clipPath><clipPath
       id="clipPath3246"><path
         d="m 0.03125,707.3551 1008.99975,0 0,-707.000913 -1008.99975,0 0,707.000913 z"
         id="path3248" /></clipPath><clipPath
       id="clipPath3252"><path
         d="m 0.03125,0.354187 1008.96895,0 0,706.645803 -1008.96895,0 0,-706.645803 z"
         id="path3254" /></clipPath><clipPath
       id="clipPath3306"><path
         d="m 0.03125,0.354187 1008.96895,0 0,706.645803 -1008.96895,0 0,-706.645803 z"
         id="path3308" /></clipPath><clipPath
       id="clipPath3326"><path
         d="m 0.03125,707.3551 1008.99975,0 0,-707.000913 -1008.99975,0 0,707.000913 z"
         id="path3328" /></clipPath><clipPath
       id="clipPath3332"><path
         d="m 0.03125,0.354187 1008.96895,0 0,706.645803 -1008.96895,0 0,-706.645803 z"
         id="path3334" /></clipPath><clipPath
       id="clipPath3346"><path
         d="m 0.03125,0.354187 1008.96895,0 0,706.645803 -1008.96895,0 0,-706.645803 z"
         id="path3348" /></clipPath><clipPath
       id="clipPath3378"><path
         d="m 0.03125,707.3551 1008.99975,0 0,-707.000913 -1008.99975,0 0,707.000913 z"
         id="path3380" /></clipPath><clipPath
       id="clipPath3384"><path
         d="m 0.03125,0.354187 1008.96895,0 0,706.645803 -1008.96895,0 0,-706.645803 z"
         id="path3386" /></clipPath></defs><g
     transform="matrix(1.25,0,0,-1.25,0,884.27087)"
     id="g3012"><g
       id="g3014" /><g
       id="g3016"><g
         clip-path="url(#clipPath3020)"
         id="g3018"><g
           clip-path="url(#clipPath3026)"
           id="g3024"><g
             transform="matrix(8.674123,0,0,8.6568,79.55561,707.3542)"
             id="g3030"><path
               d="M 0,0 0,-59.917"
               id="path3032"
               style="fill:none;stroke:#201f1f;stroke-width:0.5;stroke-linecap:butt;stroke-linejoin:miter;stroke-miterlimit:4;stroke-opacity:1;stroke-dasharray:none" /></g></g></g></g><g
       id="g3034"><g
         clip-path="url(#clipPath3038)"
         id="g3036"><path
           d="m 89.02775,415.8979 -14.67661,0 0,15.8852 14.67661,0 0,-15.8852 z"
           id="path3042"
           style="fill:#ffffff;fill-opacity:1;fill-rule:nonzero;stroke:none" /><g
           transform="matrix(8.674123,0,0,8.6568,655.6605,423.844)"
           id="g3044"><path
             d="M 0,0 -71.315,0"
             id="path3046"
             style="fill:none;stroke:#292929;stroke-width:0.5;stroke-linecap:butt;stroke-linejoin:miter;stroke-miterlimit:4;stroke-opacity:1;stroke-dasharray:none" /></g><g
           transform="matrix(8.674123,0,0,8.6568,357.1319,394.6273)"
           id="g3048"><path
             d="M 0,0 4.5,0"
             id="path3050"
             style="fill:none;stroke:#292929;stroke-width:0.5;stroke-linecap:butt;stroke-linejoin:miter;stroke-miterlimit:4;stroke-opacity:1;stroke-dasharray:none" /></g><g
           transform="matrix(8.674123,0,0,8.6568,357.1319,384.8884)"
           id="g3052"><path
             d="M 0,0 4.5,0"
             id="path3054"
             style="fill:none;stroke:#292929;stroke-width:0.5;stroke-linecap:butt;stroke-linejoin:miter;stroke-miterlimit:4;stroke-opacity:1;stroke-dasharray:none" /></g><g
           transform="matrix(8.674123,0,0,8.6568,376.6487,384.8884)"
           id="g3056"><path
             d="M 0,0 0,-2.25"
             id="path3058"
             style="fill:none;stroke:#292929;stroke-width:0.5;stroke-linecap:butt;stroke-linejoin:miter;stroke-miterlimit:4;stroke-opacity:1;stroke-dasharray:none" /></g><g
           transform="matrix(8.674123,0,0,8.6568,376.6487,414.1051)"
           id="g3060"><path
             d="M 0,0 0,-2.25"
             id="path3062"
             style="fill:none;stroke:#292929;stroke-width:0.5;stroke-linecap:butt;stroke-linejoin:miter;stroke-miterlimit:4;stroke-opacity:1;stroke-dasharray:none" /></g><g
           transform="matrix(8.674123,0,0,8.6568,376.6487,423.844)"
           id="g3064"><path
             d="M 0,0 0,-1.125"
             id="path3066"
             style="fill:none;stroke:#292929;stroke-width:0.5;stroke-linecap:butt;stroke-linejoin:miter;stroke-miterlimit:4;stroke-opacity:1;stroke-dasharray:none" /></g><g
           transform="matrix(8.674123,0,0,8.6568,376.6487,365.4106)"
           id="g3068"><path
             d="M 0,0 0,-1.125"
             id="path3070"
             style="fill:none;stroke:#292929;stroke-width:0.5;stroke-linecap:butt;stroke-linejoin:miter;stroke-miterlimit:4;stroke-opacity:1;stroke-dasharray:none" /></g><g
           transform="matrix(8.674123,0,0,8.6568,357.1319,355.6717)"
           id="g3072"><path
             d="M 0,0 4.5,0"
             id="path3074"
             style="fill:none;stroke:#292929;stroke-width:0.5;stroke-linecap:butt;stroke-linejoin:miter;stroke-miterlimit:4;stroke-opacity:1;stroke-dasharray:none" /></g><g
           transform="matrix(8.674123,0,0,8.6568,366.8903,345.9328)"
           id="g3076"><path
             d="M 0,0 2.25,0"
             id="path3078"
             style="fill:none;stroke:#292929;stroke-width:0.5;stroke-linecap:butt;stroke-linejoin:miter;stroke-miterlimit:4;stroke-opacity:1;stroke-dasharray:none" /></g><g
           transform="matrix(8.674123,0,0,8.6568,371.7434,336.1939)"
           id="g3080"><path
             d="M 0,0 1.125,0"
             id="path3082"
             style="fill:none;stroke:#292929;stroke-width:0.5;stroke-linecap:butt;stroke-linejoin:miter;stroke-miterlimit:4;stroke-opacity:1;stroke-dasharray:none" /></g><g
           transform="matrix(8.674123,0,0,8.6568,107.7803,253.9543)"
           id="g3084"><path
             d="M 0,0 0,4.5"
             id="path3086"
             style="fill:none;stroke:#292929;stroke-width:0.5;stroke-linecap:butt;stroke-linejoin:miter;stroke-miterlimit:4;stroke-opacity:1;stroke-dasharray:none" /></g><g
           transform="matrix(8.674123,0,0,8.6568,117.5387,253.9543)"
           id="g3088"><path
             d="M 0,0 0,4.5"
             id="path3090"
             style="fill:none;stroke:#292929;stroke-width:0.5;stroke-linecap:butt;stroke-linejoin:miter;stroke-miterlimit:4;stroke-opacity:1;stroke-dasharray:none" /></g><g
           transform="matrix(8.674123,0,0,8.6568,117.5387,273.4321)"
           id="g3092"><path
             d="M 0,0 2.25,0"
             id="path3094"
             style="fill:none;stroke:#292929;stroke-width:0.5;stroke-linecap:butt;stroke-linejoin:miter;stroke-miterlimit:4;stroke-opacity:1;stroke-dasharray:none" /></g><g
           transform="matrix(8.674123,0,0,8.6568,88.26356,273.4321)"
           id="g3096"><path
             d="M 0,0 2.25,0"
             id="path3098"
             style="fill:none;stroke:#292929;stroke-width:0.5;stroke-linecap:butt;stroke-linejoin:miter;stroke-miterlimit:4;stroke-opacity:1;stroke-dasharray:none" /></g><g
           transform="matrix(8.674123,0,0,8.6568,78.50517,273.4321)"
           id="g3100"><path
             d="M 0,0 1.125,0"
             id="path3102"
             style="fill:none;stroke:#292929;stroke-width:0.5;stroke-linecap:butt;stroke-linejoin:miter;stroke-miterlimit:4;stroke-opacity:1;stroke-dasharray:none" /></g><g
           transform="matrix(8.674123,0,0,8.6568,137.0555,273.4321)"
           id="g3104"><path
             d="M 0,0 1.125,0"
             id="path3106"
             style="fill:none;stroke:#292929;stroke-width:0.5;stroke-linecap:butt;stroke-linejoin:miter;stroke-miterlimit:4;stroke-opacity:1;stroke-dasharray:none" /></g><g
           transform="matrix(8.674123,0,0,8.6568,146.8139,253.9543)"
           id="g3108"><path
             d="M 0,0 0,4.5"
             id="path3110"
             style="fill:none;stroke:#292929;stroke-width:0.5;stroke-linecap:butt;stroke-linejoin:miter;stroke-miterlimit:4;stroke-opacity:1;stroke-dasharray:none" /></g><g
           transform="matrix(8.674123,0,0,8.6568,156.5766,263.6932)"
           id="g3112"><path
             d="M 0,0 0,2.25"
             id="path3114"
             style="fill:none;stroke:#292929;stroke-width:0.5;stroke-linecap:butt;stroke-linejoin:miter;stroke-miterlimit:4;stroke-opacity:1;stroke-dasharray:none" /></g><g
           transform="matrix(8.674123,0,0,8.6568,166.335,268.5375)"
           id="g3116"><path
             d="M 0,0 0,1.125"
             id="path3118"
             style="fill:none;stroke:#292929;stroke-width:0.5;stroke-linecap:butt;stroke-linejoin:miter;stroke-miterlimit:4;stroke-opacity:1;stroke-dasharray:none" /></g><path
           d="m 655.6605,458.0998 0,-156.16 148.4403,78.0843 -148.4403,78.0757 z"
           id="path3120"
           style="fill:#96989b;fill-opacity:1;fill-rule:nonzero;stroke:none" /><g
           transform="matrix(8.674123,0,0,8.6568,655.6605,458.0998)"
           id="g3122"><path
             d="M 0,0 0,-18.039 17.113,-9.019 0,0 z"
             id="path3124"
             style="fill:none;stroke:#373535;stroke-width:0.5;stroke-linecap:butt;stroke-linejoin:miter;stroke-miterlimit:4;stroke-opacity:1;stroke-dasharray:none" /></g><g
           transform="matrix(8.674123,0,0,8.6568,0.03125,0.354187)"
           id="g3126"><text
             transform="matrix(1,0,0,-1,76.0234,46.6685)"
             id="text3128"><tspan
               x="0"
               y="0"
               id="tspan3130"
               style="font-size:7px;font-variant:normal;font-weight:normal;writing-mode:lr-tb;fill:#373535;fill-opacity:1;fill-rule:nonzero;stroke:none;font-family:HelveticaRegular;-inkscape-font-specification:HelveticaRegular">+</tspan></text>
</g><g
           transform="matrix(8.674123,0,0,8.6568,0.03125,0.354187)"
           id="g3132"><text
             transform="matrix(1,0,0,-1,76.2194,36.2105)"
             id="text3134"><tspan
               x="0"
               y="0"
               id="tspan3136"
               style="font-size:7px;font-variant:normal;font-weight:normal;writing-mode:lr-tb;fill:#373535;fill-opacity:1;fill-rule:nonzero;stroke:none;font-family:HelveticaRegular;-inkscape-font-specification:HelveticaRegular">-</tspan></text>
</g><g
           transform="matrix(8.674123,0,0,8.6568,656.5071,268.5375)"
           id="g3138"><path
             d="m 0,0 -5.401,0 0,7.107 5.242,0"
             id="path3140"
             style="fill:none;stroke:#292929;stroke-width:0.5;stroke-linecap:butt;stroke-linejoin:miter;stroke-miterlimit:4;stroke-opacity:1;stroke-dasharray:none" /></g><g
           transform="matrix(8.674123,0,0,8.6568,656.5071,268.5375)"
           id="g3142"><path
             d="M 0,0 3.375,0"
             id="path3144"
             style="fill:none;stroke:#201f1f;stroke-width:0.5;stroke-linecap:butt;stroke-linejoin:miter;stroke-miterlimit:4;stroke-opacity:1;stroke-dasharray:none" /></g><g
           transform="matrix(8.674123,0,0,8.6568,705.299,249.0597)"
           id="g3146"><path
             d="M 0,0 -2.25,2.25 0,4.5"
             id="path3148"
             style="fill:none;stroke:#292929;stroke-width:0.5;stroke-linecap:butt;stroke-linejoin:miter;stroke-miterlimit:10;stroke-opacity:1;stroke-dasharray:none" /></g><g
           transform="matrix(8.674123,0,0,8.6568,533.469,328.5049)"
           id="g3150"><path
             d="M 0,0 0,11.013"
             id="path3152"
             style="fill:none;stroke:#292929;stroke-width:0.5;stroke-linecap:butt;stroke-linejoin:miter;stroke-miterlimit:4;stroke-opacity:1;stroke-dasharray:none" /></g><g
           transform="matrix(8.674123,0,0,8.6568,533.469,137.0875)"
           id="g3154"><path
             d="M 0,0 0,-1.125"
             id="path3156"
             style="fill:none;stroke:#292929;stroke-width:0.5;stroke-linecap:butt;stroke-linejoin:miter;stroke-miterlimit:4;stroke-opacity:1;stroke-dasharray:none" /></g><g
           transform="matrix(8.674123,0,0,8.6568,513.9522,127.3486)"
           id="g3158"><path
             d="M 0,0 4.5,0"
             id="path3160"
             style="fill:none;stroke:#292929;stroke-width:0.5;stroke-linecap:butt;stroke-linejoin:miter;stroke-miterlimit:4;stroke-opacity:1;stroke-dasharray:none" /></g><g
           transform="matrix(8.674123,0,0,8.6568,523.7106,117.6097)"
           id="g3162"><path
             d="M 0,0 2.25,0"
             id="path3164"
             style="fill:none;stroke:#292929;stroke-width:0.5;stroke-linecap:butt;stroke-linejoin:miter;stroke-miterlimit:4;stroke-opacity:1;stroke-dasharray:none" /></g><g
           transform="matrix(8.674123,0,0,8.6568,528.5638,107.8708)"
           id="g3166"><path
             d="M 0,0 1.125,0"
             id="path3168"
             style="fill:none;stroke:#292929;stroke-width:0.5;stroke-linecap:butt;stroke-linejoin:miter;stroke-miterlimit:4;stroke-opacity:1;stroke-dasharray:none" /></g><g
           transform="matrix(8.674123,0,0,8.6568,558.0593,207.5937)"
           id="g3170"><path
             d="M 0,0 11.35,0"
             id="path3172"
             style="fill:none;stroke:#292929;stroke-width:0.5;stroke-linecap:butt;stroke-linejoin:miter;stroke-miterlimit:4;stroke-opacity:1;stroke-dasharray:none" /></g><g
           transform="matrix(8.674123,0,0,8.6568,656.5071,207.5937)"
           id="g3174"><path
             d="M 0,0 3.375,0"
             id="path3176"
             style="fill:none;stroke:#201f1f;stroke-width:0.5;stroke-linecap:butt;stroke-linejoin:miter;stroke-miterlimit:4;stroke-opacity:1;stroke-dasharray:none" /></g><g
           transform="matrix(8.674123,0,0,8.6568,705.299,188.1159)"
           id="g3178"><path
             d="M 0,0 -2.25,2.25 0,4.5"
             id="path3180"
             style="fill:none;stroke:#292929;stroke-width:0.5;stroke-linecap:butt;stroke-linejoin:miter;stroke-miterlimit:10;stroke-opacity:1;stroke-dasharray:none" /></g><g
           transform="matrix(8.674123,0,0,8.6568,804.3575,380.0189)"
           id="g3182"><path
             d="M 0,0 9.31,0"
             id="path3184"
             style="fill:none;stroke:#292929;stroke-width:0.5;stroke-linecap:butt;stroke-linejoin:miter;stroke-miterlimit:4;stroke-opacity:1;stroke-dasharray:none" /></g><g
           transform="matrix(8.674123,0,0,8.6568,865.5925,399.4967)"
           id="g3186"><path
             d="M 0,0 2.25,-2.25 0,-4.5"
             id="path3188"
             style="fill:none;stroke:#292929;stroke-width:0.5;stroke-linecap:butt;stroke-linejoin:miter;stroke-miterlimit:10;stroke-opacity:1;stroke-dasharray:none" /></g><g
           transform="matrix(8.674123,0,0,8.6568,79.55561,188.669)"
           id="g3190"><path
             d="M 0,0 0,-3.375"
             id="path3192"
             style="fill:none;stroke:#201f1f;stroke-width:0.5;stroke-linecap:butt;stroke-linejoin:miter;stroke-miterlimit:4;stroke-opacity:1;stroke-dasharray:none" /></g><g
           transform="matrix(8.674123,0,0,8.6568,60.03883,139.9745)"
           id="g3194"><path
             d="M 0,0 2.25,2.25 4.5,0"
             id="path3196"
             style="fill:none;stroke:#292929;stroke-width:0.5;stroke-linecap:butt;stroke-linejoin:miter;stroke-miterlimit:10;stroke-opacity:1;stroke-dasharray:none" /></g><g
           transform="matrix(8.674123,0,0,8.6568,533.469,435.3922)"
           id="g3198"><path
             d="m 0,0 1.463,0 1.463,1.907 1.463,0.076 1.462,1.679 1.462,0 1.403,1.906 1.585,0.153 1.4,1.525 L 11.764,0 13.105,0"
             id="path3200"
             style="fill:none;stroke:#373535;stroke-width:0.5;stroke-linecap:butt;stroke-linejoin:miter;stroke-miterlimit:4;stroke-opacity:1;stroke-dasharray:none" /></g><g
           transform="matrix(8.674123,0,0,8.6568,851.1665,398.0727)"
           id="g3202"><path
             d="m 0,0 -1.634,0 0,7.04 -2.179,0 0,-7.04 -1.583,0"
             id="path3204"
             style="fill:none;stroke:#373535;stroke-width:0.5;stroke-linecap:butt;stroke-linejoin:miter;stroke-miterlimit:4;stroke-opacity:1;stroke-dasharray:none" /></g><g
           transform="matrix(8.674123,0,0,8.6568,688.5944,126.2284)"
           id="g3206"><path
             d="m 0,0 -1.633,0 0,7.04 -2.18,0 0,-7.04 -1.583,0"
             id="path3208"
             style="fill:none;stroke:#373535;stroke-width:0.5;stroke-linecap:butt;stroke-linejoin:miter;stroke-miterlimit:4;stroke-opacity:1;stroke-dasharray:none" /></g></g></g><g
       id="g3210"><g
         clip-path="url(#clipPath3214)"
         id="g3212"><g
           clip-path="url(#clipPath3220)"
           id="g3218"><g
             transform="matrix(8.674123,0,0,8.6568,63.26561,163.7219)"
             id="g3224"><path
               d="m 0,0 0,1.633 -7.04,0 0,2.18 7.04,0 0,1.583"
               id="path3226"
               style="fill:none;stroke:#373535;stroke-width:0.5;stroke-linecap:butt;stroke-linejoin:miter;stroke-miterlimit:4;stroke-opacity:1;stroke-dasharray:none" /></g></g></g></g><g
       id="g3228"><g
         clip-path="url(#clipPath3232)"
         id="g3230"><path
           d="m 96.90385,673.7753 163.18625,0 0,-232.0801 -163.18625,0 0,232.0801 z"
           id="path3236"
           style="fill:#bec0c2;fill-opacity:1;fill-rule:nonzero;stroke:none" /><g
           transform="matrix(8.674123,0,0,8.6568,177.1438,587.2203)"
           id="g3238"><path
             d="M 0,0 0,-5.528 0,-8.594"
             id="path3240"
             style="fill:none;stroke:#373535;stroke-width:0.5;stroke-linecap:butt;stroke-linejoin:miter;stroke-miterlimit:10;stroke-opacity:1;stroke-dasharray:none" /></g></g></g><g
       id="g3242"><g
         clip-path="url(#clipPath3246)"
         id="g3244"><g
           clip-path="url(#clipPath3252)"
           id="g3250"><path
             d="m 189.3752,513.5103 c 0,-6.735 -5.482,-12.2061 -12.2305,-12.2061 -6.7485,0 -12.2305,5.4711 -12.2305,12.2061 0,6.7436 5.482,12.206 12.2305,12.206 6.7485,0 12.2305,-5.4624 12.2305,-12.206"
             id="path3256"
             style="fill:#ffffff;fill-opacity:1;fill-rule:nonzero;stroke:none" /><path
             d="m 166.538,513.5103 c 0,-5.8347 4.7621,-10.5787 10.6084,-10.5787 5.8377,0 10.5998,4.744 10.5998,10.5787 0,5.8346 -4.7621,10.5872 -10.5998,10.5872 -5.8463,0 -10.6084,-4.7526 -10.6084,-10.5872 0,-5.8347 0,5.8346 0,0 m 24.461,0 c 0,-7.618 -6.2107,-13.825 -13.8526,-13.825 -7.6419,0 -13.8612,6.207 -13.8612,13.825 0,7.6266 6.2193,13.8335 13.8612,13.8335 7.6419,0 13.8526,-6.2069 13.8526,-13.8335 0,-7.618 0,7.6266 0,0"
             id="path3258"
             style="fill:#373535;fill-opacity:1;fill-rule:nonzero;stroke:none" /><g
             transform="matrix(8.674123,0,0,8.6568,121.456,495.2669)"
             id="g3260"><path
               d="M 0,0 C 0,0 2.374,-2.03 4.234,-3.621 5.434,-4.646 6.42,-5.49 6.42,-5.49 l 0,-2.698"
               id="path3262"
               style="fill:none;stroke:#373535;stroke-width:0.5;stroke-linecap:butt;stroke-linejoin:miter;stroke-miterlimit:10;stroke-opacity:1;stroke-dasharray:none" /></g><g
             transform="matrix(8.674123,0,0,8.6568,163.116,514.195)"
             id="g3264"><path
               d="m 0,0 c -0.191,-0.05 -0.382,-0.106 -0.568,-0.169 -1.465,-0.491 -2.75,-1.372 -3.733,-2.52"
               id="path3266"
               style="fill:none;stroke:#373535;stroke-width:0.5;stroke-linecap:butt;stroke-linejoin:miter;stroke-miterlimit:10;stroke-opacity:1;stroke-dasharray:1;stroke-dashoffset:0" /></g><g
             transform="matrix(8.674123,0,0,8.6568,79.55561,466.7566)"
             id="g3268"><path
               d="M 0,0 8.682,0"
               id="path3270"
               style="fill:none;stroke:#373535;stroke-width:0.5;stroke-linecap:butt;stroke-linejoin:miter;stroke-miterlimit:10;stroke-opacity:1;stroke-dasharray:none" /></g><g
             transform="matrix(8.674123,0,0,8.6568,177.1438,630.7623)"
             id="g3272"><path
               d="M 0,0 0,4.234"
               id="path3274"
               style="fill:none;stroke:#373535;stroke-width:0.5;stroke-linecap:butt;stroke-linejoin:miter;stroke-miterlimit:10;stroke-opacity:1;stroke-dasharray:none" /></g><path
             d="m 177.1438,630.7623 c 18.6667,0 33.7944,-15.1061 33.7944,-33.7269 0,-18.6294 -15.1277,-33.7269 -33.7944,-33.7269 -18.6667,0 -33.7944,15.0975 -33.7944,33.7269 0,18.6208 15.1277,33.7269 33.7944,33.7269"
             id="path3276"
             style="fill:#ffffff;fill-opacity:1;fill-rule:nonzero;stroke:none" /><g
             transform="matrix(8.674123,0,0,8.6568,177.1438,630.7623)"
             id="g3278"><path
               d="m 0,0 c 2.152,0 3.896,-1.745 3.896,-3.896 0,-2.152 -1.744,-3.896 -3.896,-3.896 -2.152,0 -3.896,1.744 -3.896,3.896 C -3.896,-1.745 -2.152,0 0,0 z"
               id="path3280"
               style="fill:none;stroke:#373535;stroke-width:0.5;stroke-linecap:butt;stroke-linejoin:miter;stroke-miterlimit:10;stroke-opacity:1;stroke-dasharray:none" /></g><g
             transform="matrix(8.674123,0,0,8.6568,177.1438,624.777)"
             id="g3282"><path
               d="M 0,0 0,-5.868"
               id="path3284"
               style="fill:none;stroke:#373535;stroke-width:0.5;stroke-linecap:butt;stroke-linejoin:miter;stroke-miterlimit:10;stroke-opacity:1;stroke-dasharray:none" /></g><path
             d="m 159.4052,588.3275 3.1748,2.952 14.5638,-15.6342 14.5552,15.6342 3.1834,-2.952 -17.7386,-19.0363 -17.7386,19.0363 z"
             id="path3286"
             style="fill:#373535;fill-opacity:1;fill-rule:nonzero;stroke:none" /><g
             transform="matrix(8.674123,0,0,8.6568,157.6271,667.4143)"
             id="g3288"><path
               d="M 0,0 4.5,0"
               id="path3290"
               style="fill:none;stroke:#201f1f;stroke-width:0.5;stroke-linecap:butt;stroke-linejoin:miter;stroke-miterlimit:4;stroke-opacity:1;stroke-dasharray:none" /></g><g
             transform="matrix(8.674123,0,0,8.6568,177.1438,667.4143)"
             id="g3292"><path
               d="M 0,0 0,-1.125"
               id="path3294"
               style="fill:none;stroke:#201f1f;stroke-width:0.5;stroke-linecap:butt;stroke-linejoin:miter;stroke-miterlimit:4;stroke-opacity:1;stroke-dasharray:none" /></g><g
             transform="matrix(8.674123,0,0,8.6568,0.03125,0.354187)"
             id="g3296"><text
               transform="matrix(0,1,1,0,10.7939,0)"
               id="text3298"><tspan
                 x="0 2.9579999 6.3720002 7.776 10.59"
                 y="0"
                 id="tspan3300"
                 style="font-size:6px;font-variant:normal;font-weight:normal;writing-mode:lr-tb;fill:#373535;fill-opacity:1;fill-rule:nonzero;stroke:none;font-family:HelveticaRegular;-inkscape-font-specification:HelveticaRegular">Spike</tspan></text>
</g></g></g></g><g
       id="g3302"><g
         clip-path="url(#clipPath3306)"
         id="g3304"><g
           transform="matrix(8.674123,0,0,8.6568,0.03125,0.354187)"
           id="g3310"><text
             transform="matrix(0,1,1,0,6.9946,25.4824)"
             id="text3312"><tspan
               x="0 3.6719999 6.3606 9.6546001"
               y="0"
               id="tspan3314"
               style="font-size:6px;font-variant:normal;font-weight:normal;writing-mode:lr-tb;fill:#373535;fill-opacity:1;fill-rule:nonzero;stroke:none;font-family:HelveticaRegular;-inkscape-font-specification:HelveticaRegular">Axon</tspan></text>
</g><g
           transform="matrix(8.674123,0,0,8.6568,0.03125,0.354187)"
           id="g3316"><text
             transform="matrix(0,1,1,0,6.8446,51.1984)"
             id="text3318"><tspan
               x="0 2.9100001 5.7360001 9.066 11.958 15.372 17.747999"
               y="0"
               id="tspan3320"
               style="font-size:6px;font-variant:normal;font-weight:normal;writing-mode:lr-tb;fill:#373535;fill-opacity:1;fill-rule:nonzero;stroke:none;font-family:HelveticaRegular;-inkscape-font-specification:HelveticaRegular">Synapse</tspan></text>
</g></g></g><g
       id="g3322"><g
         clip-path="url(#clipPath3326)"
         id="g3324"><g
           clip-path="url(#clipPath3332)"
           id="g3330"><g
             transform="matrix(8.674123,0,0,8.6568,0.03125,0.354187)"
             id="g3336"><text
               transform="matrix(1,0,0,-1,102.7266,41.5474)"
               id="text3338"><tspan
                 x="0 2.9579999 6.3720002 7.776 10.59"
                 y="0"
                 id="tspan3340"
                 style="font-size:6px;font-variant:normal;font-weight:normal;writing-mode:lr-tb;fill:#373535;fill-opacity:1;fill-rule:nonzero;stroke:none;font-family:HelveticaRegular;-inkscape-font-specification:HelveticaRegular">Spike</tspan></text>
</g></g></g></g><g
       id="g3342"><g
         clip-path="url(#clipPath3346)"
         id="g3344"><g
           transform="matrix(8.674123,0,0,8.6568,0.03125,0.354187)"
           id="g3350"><text
             transform="matrix(1,0,0,-1,82.3086,28.9224)"
             id="text3352"><tspan
               x="0 2.9405999 6.2705998 8.1731997 11.1792 13.5552 16.885201 20.179199 21.5952"
               y="0"
               id="tspan3354"
               style="font-size:6px;font-variant:normal;font-weight:normal;writing-mode:lr-tb;fill:#373535;fill-opacity:1;fill-rule:nonzero;stroke:none;font-family:HelveticaRegular;-inkscape-font-specification:HelveticaRegular">Threshold</tspan></text>
</g><g
           transform="matrix(8.674123,0,0,8.6568,0.03125,0.354187)"
           id="g3356"><text
             transform="matrix(1,0,0,-1,82.3086,21.4404)"
             id="text3358"><tspan
               x="0 3.2520001 6.2579999 8.6339998 11.64"
               y="0"
               id="tspan3360"
               style="font-size:6px;font-variant:normal;font-weight:normal;writing-mode:lr-tb;fill:#373535;fill-opacity:1;fill-rule:nonzero;stroke:none;font-family:HelveticaRegular;-inkscape-font-specification:HelveticaRegular">Reset</tspan></text>
</g><g
           transform="matrix(8.674123,0,0,8.6568,0.03125,0.354187)"
           id="g3362"><text
             transform="matrix(1,0,0,-1,32.1906,51.0444)"
             id="text3364"><tspan
               x="0 4.0194001 7.0254002 10.3554 13.7394 15.7248 17.128799 19.0788"
               y="0"
               id="tspan3366"
               style="font-size:6px;font-variant:normal;font-weight:normal;writing-mode:lr-tb;fill:#373535;fill-opacity:1;fill-rule:nonzero;stroke:none;font-family:HelveticaRegular;-inkscape-font-specification:HelveticaRegular">Dendrite</tspan></text>
</g><g
           transform="matrix(8.674123,0,0,8.6568,0.03125,0.354187)"
           id="g3368"><text
             transform="matrix(1,0,0,-1,74.3706,55.6704)"
             id="text3370"><tspan
               x="0 2.994 6.2880001 11.292"
               y="0"
               id="tspan3372"
               style="font-size:6px;font-variant:normal;font-weight:normal;writing-mode:lr-tb;fill:#373535;fill-opacity:1;fill-rule:nonzero;stroke:none;font-family:HelveticaRegular;-inkscape-font-specification:HelveticaRegular">Soma</tspan></text>
</g></g></g><g
       id="g3374"><g
         clip-path="url(#clipPath3378)"
         id="g3376"><g
           clip-path="url(#clipPath3384)"
           id="g3382"><g
             transform="matrix(8.674123,0,0,8.6568,533.469,328.5049)"
             id="g3388"><path
               d="M 0,0 0,-8.594"
               id="path3390"
               style="fill:none;stroke:#373535;stroke-width:0.5;stroke-linecap:butt;stroke-linejoin:miter;stroke-miterlimit:10;stroke-opacity:1;stroke-dasharray:none" /></g><path
             d="m 521.2367,254.7957 c 0,-6.735 5.4821,-12.2061 12.2306,-12.2061 6.7484,0 12.2305,5.4711 12.2305,12.2061 0,6.7437 -5.4821,12.2061 -12.2305,12.2061 -6.7485,0 -12.2306,-5.4624 -12.2306,-12.2061"
             id="path3392"
             style="fill:#ffffff;fill-opacity:1;fill-rule:nonzero;stroke:none" /><path
             d="m 544.074,254.7957 c 0,5.8347 -4.7534,10.5873 -10.6085,10.5873 -5.8463,0 -10.5998,-4.7526 -10.5998,-10.5873 0,-5.8347 4.7535,-10.5786 10.5998,-10.5786 5.8551,0 10.6085,4.7439 10.6085,10.5786 0,5.8347 0,-5.8347 0,0 m -24.4611,0 c 0,7.6267 6.2107,13.8336 13.8526,13.8336 7.6419,0 13.8613,-6.2069 13.8613,-13.8336 0,-7.618 -6.2194,-13.8249 -13.8613,-13.8249 -7.6419,0 -13.8526,6.2069 -13.8526,13.8249 0,7.6267 0,-7.618 0,0"
             id="path3394"
             style="fill:#373535;fill-opacity:1;fill-rule:nonzero;stroke:none" /><g
             transform="matrix(8.674123,0,0,8.6568,589.156,236.5515)"
             id="g3396"><path
               d="m 0,0 -6.42,-5.49 0,-6"
               id="path3398"
               style="fill:none;stroke:#373535;stroke-width:0.5;stroke-linecap:butt;stroke-linejoin:miter;stroke-miterlimit:10;stroke-opacity:1;stroke-dasharray:none" /></g><g
             transform="matrix(8.674123,0,0,8.6568,547.4924,255.4805)"
             id="g3400"><path
               d="M 0,0 C 1.7,-0.439 3.193,-1.395 4.301,-2.689"
               id="path3402"
               style="fill:none;stroke:#373535;stroke-width:0.5;stroke-linecap:butt;stroke-linejoin:miter;stroke-miterlimit:10;stroke-opacity:1;stroke-dasharray:1;stroke-dashoffset:0" /></g></g></g></g></g></svg>